mtllib куб.mtl
v 50.034199 49.863098 50.034199
v -49.965801 49.863098 50.034199
v -49.965801 -50.136902 50.034199
v 50.000000 -50.000000 50.000000
vt 1.000000 1.000000
vt 0.000000 1.000000
vt 0.000000 0.000000
vt 1.000000 0.000000
vn 0.000171 -0.000171 1.000000
vn 0.000000 0.000000 1.000000
vn 0.000171 -0.000171 1.000000
vn 0.000342 -0.000342 1.000000
usemtl Материал_спереди
f 1/1/1 2/2/2 3/3/3
f 4/4/4 1/1/1 3/3/3
v 50.000000 50.000000 -50.000000
v 50.000000 50.000000 50.000000
v 50.000000 -50.000000 50.000000
v 50.000000 -50.000000 -50.000000
vt 1.000000 1.000000
vt 0.000000 1.000000
vt 0.000000 0.000000
vt 1.000000 0.000000
vn 1.000000 0.000000 0.000000
vn 1.000000 0.000000 0.000000
vn 1.000000 0.000000 0.000000
vn 1.000000 0.000000 0.000000
usemtl Материал_справа
f 5/5/5 6/6/6 7/7/7
f 8/8/8 5/5/5 7/7/7
v -50.000000 50.000000 -50.000000
v 50.000000 50.000000 -50.000000
v 50.000000 -50.000000 -50.000000
v -50.000000 -50.000000 -50.000000
vt 1.000000 1.000000
vt 0.000000 1.000000
vt 0.000000 0.000000
vt 1.000000 0.000000
vn 0.000000 0.000000 -1.000000
vn 0.000000 0.000000 -1.000000
vn 0.000000 0.000000 -1.000000
vn 0.000000 0.000000 -1.000000
usemtl Материал_сзади
f 9/9/9 10/10/10 11/11/11
f 12/12/12 9/9/9 11/11/11
v -50.000000 50.000000 50.000000
v -50.000000 50.000000 -50.000000
v -50.000000 -50.000000 -50.000000
v -50.000000 -50.000000 50.000000
vt 1.000000 1.000000
vt 0.000000 1.000000
vt 0.000000 0.000000
vt 1.000000 0.000000
vn -1.000000 0.000000 0.000000
vn -1.000000 0.000000 0.000000
vn -1.000000 0.000000 0.000000
vn -1.000000 0.000000 0.000000
usemtl Материал_слева
f 13/13/13 14/14/14 15/15/15
f 16/16/16 13/13/13 15/15/15
v 50.000000 50.000000 -50.000000
v -50.000000 50.000000 -50.000000
v -50.000000 50.000000 50.000000
v 50.000000 50.000000 50.000000
vt 1.000000 1.000000
vt 0.000000 1.000000
vt 0.000000 0.000000
vt 1.000000 0.000000
vn 0.000000 1.000000 0.000000
vn 0.000000 1.000000 0.000000
vn 0.000000 1.000000 0.000000
vn 0.000000 1.000000 0.000000
usemtl Материал_сверху
f 17/17/17 18/18/18 19/19/19
f 20/20/20 17/17/17 19/19/19
v 50.000000 -50.000000 50.000000
v -50.000000 -50.000000 50.000000
v -50.000000 -50.000000 -50.000000
v 50.000000 -50.000000 -50.000000
vt 1.000000 1.000000
vt 0.000000 1.000000
vt 0.000000 0.000000
vt 1.000000 0.000000
vn 0.000000 -1.000000 0.000000
vn 0.000000 -1.000000 0.000000
vn 0.000000 -1.000000 0.000000
vn 0.000000 -1.000000 0.000000
usemtl Материал_снизу
f 21/21/21 22/22/22 23/23/23
f 24/24/24 21/21/21 23/23/23
